<mxfile host="65bd71144e">
    <diagram name="Page-1" id="Es02p8DRjkub2hjDWlHL">
        <mxGraphModel dx="1644" dy="2380" grid="1" gridSize="10" guides="1" tooltips="1" connect="1" arrows="1" fold="1" page="1" pageScale="1" pageWidth="827" pageHeight="1169" math="0" shadow="0">
            <root>
                <mxCell id="0"/>
                <mxCell id="1" parent="0"/>
                <mxCell id="geomr1CJVptTWvtlSGP4-65" value="ED SaaS or Local" style="swimlane;horizontal=0;whiteSpace=wrap;html=1;" parent="1" vertex="1">
                    <mxGeometry x="540" y="-200" width="530" height="340" as="geometry"/>
                </mxCell>
                <mxCell id="geomr1CJVptTWvtlSGP4-66" style="edgeStyle=none;html=1;startArrow=classic;startFill=1;" parent="geomr1CJVptTWvtlSGP4-65" source="geomr1CJVptTWvtlSGP4-67" target="geomr1CJVptTWvtlSGP4-68" edge="1">
                    <mxGeometry relative="1" as="geometry"/>
                </mxCell>
                <mxCell id="geomr1CJVptTWvtlSGP4-67" value="Mintaka" style="rounded=1;whiteSpace=wrap;html=1;" parent="geomr1CJVptTWvtlSGP4-65" vertex="1">
                    <mxGeometry x="250" y="100" width="120" height="60" as="geometry"/>
                </mxCell>
                <mxCell id="geomr1CJVptTWvtlSGP4-68" value="timescale-db (data storage)" style="rounded=1;whiteSpace=wrap;html=1;" parent="geomr1CJVptTWvtlSGP4-65" vertex="1">
                    <mxGeometry x="180" y="230" width="120" height="60" as="geometry"/>
                </mxCell>
                <mxCell id="geomr1CJVptTWvtlSGP4-71" value="mongo-db (store configuration)" style="rounded=1;whiteSpace=wrap;html=1;" parent="geomr1CJVptTWvtlSGP4-65" vertex="1">
                    <mxGeometry x="60" y="20" width="100" height="61" as="geometry"/>
                </mxCell>
                <mxCell id="geomr1CJVptTWvtlSGP4-72" style="edgeStyle=none;html=1;exitX=0.5;exitY=0;exitDx=0;exitDy=0;entryX=0.5;entryY=1;entryDx=0;entryDy=0;startArrow=classic;startFill=1;" parent="geomr1CJVptTWvtlSGP4-65" source="geomr1CJVptTWvtlSGP4-73" target="geomr1CJVptTWvtlSGP4-71" edge="1">
                    <mxGeometry relative="1" as="geometry"/>
                </mxCell>
                <mxCell id="2" value="troe" style="edgeStyle=none;html=1;exitX=0.75;exitY=1;exitDx=0;exitDy=0;entryX=0.358;entryY=-0.05;entryDx=0;entryDy=0;entryPerimeter=0;" parent="geomr1CJVptTWvtlSGP4-65" source="geomr1CJVptTWvtlSGP4-73" target="geomr1CJVptTWvtlSGP4-68" edge="1">
                    <mxGeometry x="0.0051" relative="1" as="geometry">
                        <mxPoint x="347" y="270" as="targetPoint"/>
                        <mxPoint as="offset"/>
                    </mxGeometry>
                </mxCell>
                <mxCell id="geomr1CJVptTWvtlSGP4-73" value="Orion-LD" style="rounded=1;whiteSpace=wrap;html=1;" parent="geomr1CJVptTWvtlSGP4-65" vertex="1">
                    <mxGeometry x="70" y="140" width="120" height="60" as="geometry"/>
                </mxCell>
                <mxCell id="geomr1CJVptTWvtlSGP4-79" style="edgeStyle=none;html=1;entryX=0.5;entryY=1;entryDx=0;entryDy=0;startArrow=classic;startFill=1;" parent="geomr1CJVptTWvtlSGP4-65" source="geomr1CJVptTWvtlSGP4-80" target="geomr1CJVptTWvtlSGP4-67" edge="1">
                    <mxGeometry relative="1" as="geometry"/>
                </mxCell>
                <mxCell id="geomr1CJVptTWvtlSGP4-80" value="Kong Proxy" style="rounded=1;whiteSpace=wrap;html=1;" parent="geomr1CJVptTWvtlSGP4-65" vertex="1">
                    <mxGeometry x="330" y="300" width="120" height="50" as="geometry"/>
                </mxCell>
                <mxCell id="geomr1CJVptTWvtlSGP4-81" value="Keycloak" style="rounded=1;whiteSpace=wrap;html=1;" parent="geomr1CJVptTWvtlSGP4-65" vertex="1">
                    <mxGeometry x="370" y="40" width="120" height="50" as="geometry"/>
                </mxCell>
                <mxCell id="geomr1CJVptTWvtlSGP4-82" style="rounded=0;orthogonalLoop=1;jettySize=auto;html=1;exitX=0.5;exitY=0;exitDx=0;exitDy=0;entryX=0.25;entryY=1;entryDx=0;entryDy=0;startArrow=classic;startFill=1;" parent="geomr1CJVptTWvtlSGP4-65" source="geomr1CJVptTWvtlSGP4-83" target="geomr1CJVptTWvtlSGP4-73" edge="1">
                    <mxGeometry relative="1" as="geometry"/>
                </mxCell>
                <mxCell id="geomr1CJVptTWvtlSGP4-83" value="Kong Proxy" style="rounded=1;whiteSpace=wrap;html=1;" parent="geomr1CJVptTWvtlSGP4-65" vertex="1">
                    <mxGeometry x="30" y="300" width="120" height="50" as="geometry"/>
                </mxCell>
                <mxCell id="geomr1CJVptTWvtlSGP4-85" value="RAMP / ED" style="swimlane;horizontal=0;whiteSpace=wrap;html=1;startSize=23;" parent="1" vertex="1">
                    <mxGeometry x="971" y="190" width="270" height="230" as="geometry"/>
                </mxCell>
                <mxCell id="geomr1CJVptTWvtlSGP4-86" value="&lt;h2 data-ved=&quot;2ahUKEwiqjumD2MqCAxUdgf0HHfErBAQQ3B0oAXoECFwQEQ&quot; data-attrid=&quot;title&quot; data-local-attribute=&quot;d3bn&quot; class=&quot;qrShPb pXs6bb PZPZlf q8U8x aTI8gc&quot; style=&quot;font-size: 12px;&quot;&gt;&lt;span style=&quot;font-size: 12px;&quot;&gt;&lt;font style=&quot;font-size: 12px;&quot;&gt;Stakeholder Engagement and Collaboration (RAMP)&lt;/font&gt;&lt;/span&gt;&lt;/h2&gt;" style="rounded=1;whiteSpace=wrap;html=1;fontSize=12;fontStyle=1" parent="geomr1CJVptTWvtlSGP4-85" vertex="1">
                    <mxGeometry x="40" y="20" width="120" height="60" as="geometry"/>
                </mxCell>
                <mxCell id="30" value="&lt;h2 style=&quot;font-size: 13px;&quot; data-ved=&quot;2ahUKEwiqjumD2MqCAxUdgf0HHfErBAQQ3B0oAXoECFwQEQ&quot; data-attrid=&quot;title&quot; data-local-attribute=&quot;d3bn&quot; class=&quot;qrShPb pXs6bb PZPZlf q8U8x aTI8gc&quot;&gt;Manufacturing Process Orchestration (MPMS Tool)&lt;/h2&gt;" style="rounded=1;whiteSpace=wrap;html=1;fontSize=13;fontStyle=0" vertex="1" parent="geomr1CJVptTWvtlSGP4-85">
                    <mxGeometry x="75" y="135" width="145" height="75" as="geometry"/>
                </mxCell>
                <mxCell id="geomr1CJVptTWvtlSGP4-87" value="Actor/App&lt;br&gt;Get the latest data" style="shape=umlActor;verticalLabelPosition=bottom;verticalAlign=top;html=1;outlineConnect=0;" parent="1" vertex="1">
                    <mxGeometry x="370" y="440" width="30" height="60" as="geometry"/>
                </mxCell>
                <mxCell id="geomr1CJVptTWvtlSGP4-88" value="User&lt;br&gt;Get historical data" style="shape=umlActor;verticalLabelPosition=bottom;verticalAlign=top;html=1;outlineConnect=0;" parent="1" vertex="1">
                    <mxGeometry x="1260" y="60" width="30" height="60" as="geometry"/>
                </mxCell>
                <mxCell id="geomr1CJVptTWvtlSGP4-92" value="partner PC" style="swimlane;horizontal=0;whiteSpace=wrap;html=1;" parent="1" vertex="1">
                    <mxGeometry x="270" y="-60" width="200" height="200" as="geometry"/>
                </mxCell>
                <mxCell id="geomr1CJVptTWvtlSGP4-70" value="python csv to &lt;br&gt;NGSI-LD" style="rounded=1;whiteSpace=wrap;html=1;" parent="geomr1CJVptTWvtlSGP4-92" vertex="1">
                    <mxGeometry x="40" y="60" width="140" height="80" as="geometry"/>
                </mxCell>
                <mxCell id="15" value="partner PC" style="swimlane;horizontal=0;whiteSpace=wrap;html=1;" parent="1" vertex="1">
                    <mxGeometry x="290" y="-310" width="170" height="170" as="geometry"/>
                </mxCell>
                <mxCell id="16" value="curl&amp;nbsp;&lt;br&gt;ieq data" style="rounded=1;whiteSpace=wrap;html=1;" parent="15" vertex="1">
                    <mxGeometry x="40" y="60" width="110" height="70" as="geometry"/>
                </mxCell>
                <mxCell id="21" value="CUT" style="swimlane;horizontal=0;whiteSpace=wrap;html=1;" vertex="1" parent="1">
                    <mxGeometry x="630" y="-490" width="290" height="170" as="geometry"/>
                </mxCell>
                <mxCell id="34" value="&lt;h2 data-ved=&quot;2ahUKEwiqjumD2MqCAxUdgf0HHfErBAQQ3B0oAXoECFwQEQ&quot; data-attrid=&quot;title&quot; data-local-attribute=&quot;d3bn&quot; class=&quot;qrShPb pXs6bb PZPZlf q8U8x aTI8gc&quot; style=&quot;font-size: 13px;&quot;&gt;Supply Chain Digital Twin (SCDT Tool)&lt;/h2&gt;" style="rounded=1;whiteSpace=wrap;html=1;fontStyle=0;fontSize=13;" vertex="1" parent="21">
                    <mxGeometry x="30" y="10" width="160" height="70" as="geometry"/>
                </mxCell>
                <mxCell id="27" value="&lt;h2 data-ved=&quot;2ahUKEwiqjumD2MqCAxUdgf0HHfErBAQQ3B0oAXoECFwQEQ&quot; data-attrid=&quot;title&quot; data-local-attribute=&quot;d3bn&quot; class=&quot;qrShPb pXs6bb PZPZlf q8U8x aTI8gc&quot; style=&quot;font-size: 13px;&quot;&gt;Supply Chain Optimization (SCOPT Tool)&lt;/h2&gt;" style="rounded=1;whiteSpace=wrap;html=1;fontStyle=0;fontSize=13;" vertex="1" parent="21">
                    <mxGeometry x="130" y="90" width="130" height="70" as="geometry"/>
                </mxCell>
                <mxCell id="32" value="SUPSI" style="swimlane;horizontal=0;whiteSpace=wrap;html=1;" vertex="1" parent="1">
                    <mxGeometry x="390" y="220" width="190" height="140" as="geometry"/>
                </mxCell>
                <mxCell id="33" value="&lt;h2 data-ved=&quot;2ahUKEwiqjumD2MqCAxUdgf0HHfErBAQQ3B0oAXoECFwQEQ&quot; data-attrid=&quot;title&quot; data-local-attribute=&quot;d3bn&quot; class=&quot;qrShPb pXs6bb PZPZlf q8U8x aTI8gc&quot;&gt;GRETA&lt;/h2&gt;" style="rounded=1;whiteSpace=wrap;html=1;fontStyle=0" vertex="1" parent="32">
                    <mxGeometry x="47" y="40" width="120" height="60" as="geometry"/>
                </mxCell>
                <mxCell id="35" value="CAN" style="swimlane;horizontal=0;whiteSpace=wrap;html=1;startSize=23;" vertex="1" parent="1">
                    <mxGeometry x="660" y="200" width="240" height="130" as="geometry"/>
                </mxCell>
                <mxCell id="24" value="&lt;h2 data-ved=&quot;2ahUKEwiqjumD2MqCAxUdgf0HHfErBAQQ3B0oAXoECFwQEQ&quot; data-attrid=&quot;title&quot; data-local-attribute=&quot;d3bn&quot; class=&quot;qrShPb pXs6bb PZPZlf q8U8x aTI8gc&quot; style=&quot;font-size: 13px;&quot;&gt;CV-based system for composition detection&lt;/h2&gt;" style="rounded=1;whiteSpace=wrap;html=1;fontStyle=0;fontSize=13;" vertex="1" parent="35">
                    <mxGeometry x="70" y="30" width="130" height="60" as="geometry"/>
                </mxCell>
                <mxCell id="38" value="Alastria" style="swimlane;horizontal=0;whiteSpace=wrap;html=1;" vertex="1" parent="1">
                    <mxGeometry x="1110" y="-140" width="190" height="140" as="geometry"/>
                </mxCell>
                <mxCell id="39" value="&lt;h2 data-ved=&quot;2ahUKEwiqjumD2MqCAxUdgf0HHfErBAQQ3B0oAXoECFwQEQ&quot; data-attrid=&quot;title&quot; data-local-attribute=&quot;d3bn&quot; class=&quot;qrShPb pXs6bb PZPZlf q8U8x aTI8gc&quot; style=&quot;font-size: 13px;&quot;&gt;&lt;span style=&quot;font-size: 13px;&quot;&gt;Bloclchain&amp;nbsp;&lt;/span&gt;&lt;br style=&quot;font-size: 13px;&quot;&gt;&lt;/h2&gt;" style="rounded=1;whiteSpace=wrap;html=1;fontStyle=1;fontSize=13;" vertex="1" parent="38">
                    <mxGeometry x="47" y="40" width="120" height="60" as="geometry"/>
                </mxCell>
            </root>
        </mxGraphModel>
    </diagram>
</mxfile>